HIERARCHY
ROOT Hips
{
	OFFSET 0.00000 0.00000 0.00000
	CHANNELS 6 Xposition Yposition Zposition Zrotation Yrotation Xrotation 
	JOINT LHipJoint
	{
		OFFSET 0 0 0
		CHANNELS 3 Zrotation Yrotation Xrotation
		JOINT LeftUpLeg
		{
			OFFSET 1.62964 -1.40469 0.78906
			CHANNELS 3 Zrotation Yrotation Xrotation
			JOINT LeftLeg
			{
				OFFSET 2.29640 -6.30932 0.00000
				CHANNELS 3 Zrotation Yrotation Xrotation
				JOINT LeftFoot
				{
					OFFSET 2.29451 -6.30412 0.00000
					CHANNELS 3 Zrotation Yrotation Xrotation
					JOINT LeftToeBase
					{
						OFFSET 0.03611 -0.09921 1.56387
						CHANNELS 3 Zrotation Yrotation Xrotation
						End Site
						{
							OFFSET 0.00000 -0.00000 0.80291
						}
					}
				}
			}
		}
	}
	JOINT RHipJoint
	{
		OFFSET 0 0 0
		CHANNELS 3 Zrotation Yrotation Xrotation
		JOINT RightUpLeg
		{
			OFFSET -1.73712 -1.40469 0.78906
			CHANNELS 3 Zrotation Yrotation Xrotation
			JOINT RightLeg
			{
				OFFSET -2.28137 -6.26801 0.00000
				CHANNELS 3 Zrotation Yrotation Xrotation
				JOINT RightFoot
				{
					OFFSET -2.28681 -6.28298 0.00000
					CHANNELS 3 Zrotation Yrotation Xrotation
					JOINT RightToeBase
					{
						OFFSET -0.15927 -0.43759 1.61103
						CHANNELS 3 Zrotation Yrotation Xrotation
						End Site
						{
							OFFSET -0.00000 -0.00000 0.84630
						}
					}
				}
			}
		}
	}
	JOINT LowerBack
	{
		OFFSET 0 0 0
		CHANNELS 3 Zrotation Yrotation Xrotation
		JOINT Spine
		{
			OFFSET -0.04227 2.04338 -0.00225
			CHANNELS 3 Zrotation Yrotation Xrotation
			JOINT Spine1
			{
				OFFSET -0.02148 2.04482 -0.04273
				CHANNELS 3 Zrotation Yrotation Xrotation
				JOINT Neck
				{
					OFFSET 0 0 0
					CHANNELS 3 Zrotation Yrotation Xrotation
					JOINT Neck1
					{
						OFFSET 0.09180 1.44629 0.19359
						CHANNELS 3 Zrotation Yrotation Xrotation
						JOINT Head
						{
							OFFSET 0.00887 1.40645 0.14750
							CHANNELS 3 Zrotation Yrotation Xrotation
							End Site
							{
								OFFSET -0.00669 1.50671 0.03707
							}
						}
					}
				}
				JOINT LeftShoulder
				{
					OFFSET 0 0 0
					CHANNELS 3 Zrotation Yrotation Xrotation
					JOINT LeftArm
					{
						OFFSET 2.17674 1.86763 -0.06520
						CHANNELS 3 Zrotation Yrotation Xrotation
						JOINT LeftForeArm
						{
							OFFSET 4.65776 -0.00000 0.00000
							CHANNELS 3 Zrotation Yrotation Xrotation
							JOINT LeftHand
							{
								OFFSET 3.55539 -0.00000 0.00000
								CHANNELS 3 Zrotation Yrotation Xrotation
								JOINT LeftFingerBase
								{
									OFFSET 0 0 0
									CHANNELS 3 Zrotation Yrotation Xrotation
									JOINT LeftHandIndex1
									{
										OFFSET 0.70726 -0.00000 0.00000
										CHANNELS 3 Zrotation Yrotation Xrotation
										End Site
										{
											OFFSET 0.57022 -0.00000 0.00000
										}
									}
								}
								JOINT LThumb
								{
									OFFSET 0 0 0
									CHANNELS 3 Zrotation Yrotation Xrotation
									End Site
									{
										OFFSET 0.57892 -0.00000 0.57892
									}
								}
							}
						}
					}
				}
				JOINT RightShoulder
				{
					OFFSET 0 0 0
					CHANNELS 3 Zrotation Yrotation Xrotation
					JOINT RightArm
					{
						OFFSET -2.80694 1.55459 -0.32496
						CHANNELS 3 Zrotation Yrotation Xrotation
						JOINT RightForeArm
						{
							OFFSET -4.71925 -0.00000 -0.00000
							CHANNELS 3 Zrotation Yrotation Xrotation
							JOINT RightHand
							{
								OFFSET -3.56990 -0.00000 0.00000
								CHANNELS 3 Zrotation Yrotation Xrotation
								JOINT RightFingerBase
								{
									OFFSET 0 0 0
									CHANNELS 3 Zrotation Yrotation Xrotation
									JOINT RightHandIndex1
									{
										OFFSET -0.50776 -0.00000 0.00000
										CHANNELS 3 Zrotation Yrotation Xrotation
										End Site
										{
											OFFSET -0.40937 -0.00000 0.00000
										}
									}
								}
								JOINT RThumb
								{
									OFFSET 0 0 0
									CHANNELS 3 Zrotation Yrotation Xrotation
									End Site
									{
										OFFSET -0.41562 -0.00000 0.41562
									}
								}
							}
						}
					}
				}
			}
		}
	}
}
MOTION
Frames: 13
Frame Time: .0083333
16.9571 18.0023 20.5954 0 0 0 0 0 0 -21 0 0 0 0 0 0 0 0 0 0 0 0 0 0 21 0 0 0 0 0 0 0 0 0 0 0 0 0 0 0 0 0 0 0 0 0 0 -16 0 0 21 0 0 11 0 0 0 -8 0 0 0 0 0 0 0 0 0 0 0 0 0 0 0 0 0 0 0 0 8 0 0 0 0 0 0 0 0 0 0 0 0 0 0 0 0 0
16.9571 18.0023 20.5954 173.8270 -2.0047 -153.8580 0.0000 0.0000 0.0000 -25.1457 -17.1792 -19.2788 0.2928 3.4798 9.6176 0.0412 -6.2197 -5.3857 0.0254 -1.0287 -2.8278 0.0000 0.0000 0.0000 15.6760 9.4544 -20.1014 -0.1067 -2.1061 5.7990 -0.9714 7.3407 -17.6110 -0.0001 -0.0753 0.2068 -10.1589 -2.8565 -32.0639 -0.4021 -0.6191 -0.6244 4.6878 -1.3027 16.0467 -0.6326 -0.3942 -4.1935 3.0440 -1.2386 11.9112 1.0693 -0.6472 4.7370 -0.0000 0.0000 0.0000 -85.4941 1.2752 21.3286 12.1207 -19.9855 -2.1434 -0.0000 -0.0000 4.1449 22.0225 -12.1967 -4.8843 -7.1250 0.0000 -0.0000 -3.6123 16.8717 2.4132 -0.0000 0.0000 0.0000 91.2040 -6.3654 4.3400 -17.8991 28.0278 -4.5017 0.0000 -0.0000 -2.1150 -10.0880 -53.3048 8.1186 7.1250 -0.0000 -0.0000 68.7571 -75.0906 -53.7850
16.9554 18.0008 20.5919 173.8860 -1.9372 -153.8460 0.0000 0.0000 0.0000 -25.0998 -17.0950 -19.3064 0.2918 3.4740 9.6012 0.0462 -5.9724 -5.3681 0.0449 -1.3670 -3.7593 0.0000 0.0000 0.0000 15.6891 9.7711 -20.0983 -0.1130 -2.1677 5.9693 -0.9603 7.2173 -17.5048 -0.0105 -0.6618 1.8187 -10.0794 -2.8168 -32.1445 -0.4038 -0.5871 -0.6158 4.6557 -1.2855 16.0886 -0.6146 -0.3598 -4.0784 3.0278 -1.1678 11.6479 1.0628 -0.6088 4.6146 -0.0000 0.0000 0.0000 -85.4745 1.2395 21.4530 12.1066 -19.9644 -2.1386 -0.0000 -0.0000 4.1741 22.2451 -12.1885 -4.9355 -7.1250 0.0000 -0.0000 -3.4571 16.8592 2.3101 -0.0000 0.0000 0.0000 91.2517 -6.2871 4.1990 -17.8811 28.0047 -4.4933 0.0000 -0.0000 -1.9089 -9.2723 -52.8229 7.4115 7.1250 -0.0000 -0.0000 67.3977 -74.6427 -52.0443
16.9528 18.0012 20.5867 173.9270 -1.8529 -153.9460 0.0000 0.0000 0.0000 -25.1026 -17.0415 -19.1544 0.2881 3.4517 9.5389 0.0529 -5.7710 -5.4230 0.0482 -1.4165 -3.8955 0.0000 0.0000 0.0000 15.7217 9.7615 -19.9778 -0.1125 -2.1626 5.9552 -0.9380 7.2996 -17.3066 -0.0212 -0.9403 2.5846 -10.0102 -2.7988 -32.1346 -0.3918 -0.5778 -0.5578 4.6380 -1.2773 16.1547 -0.6730 -0.2781 -4.1654 3.0437 -1.0367 11.5287 1.0853 -0.5406 4.5863 0.0000 -0.0000 0.0000 -85.5445 1.1738 21.3561 12.1237 -19.9900 -2.1444 -0.0000 -0.0000 4.3182 22.2386 -11.9634 -4.8445 -7.1250 0.0000 -0.0000 -3.4523 17.1007 2.2887 0.0000 -0.0000 0.0000 91.2191 -6.1278 4.1637 -17.8312 27.9405 -4.4699 0.0000 -0.0000 -1.8666 -8.9593 -52.2385 7.1046 7.1250 -0.0000 -0.0000 65.5386 -74.3349 -50.0231
16.9528 17.9994 20.5869 173.9680 -1.8319 -153.9650 0.0000 0.0000 0.0000 -25.0587 -16.9750 -19.1819 0.2896 3.4608 9.5643 0.0513 -5.8062 -5.4036 0.0403 -1.2964 -3.5648 0.0000 0.0000 0.0000 15.7631 9.8091 -19.9588 -0.1130 -2.1669 5.9672 -0.9350 7.2515 -17.2764 -0.0175 -0.8537 2.3464 -9.9717 -2.7628 -32.1199 -0.4115 -0.5477 -0.5760 4.6087 -1.2598 16.1216 -0.7621 -0.1304 -4.1083 3.1923 -0.8310 11.3517 1.1614 -0.4336 4.5076 -0.0000 0.0000 0.0000 -85.4985 1.1712 21.4781 12.1241 -19.9906 -2.1445 -0.0000 -0.0000 4.2954 22.2457 -11.8661 -4.8076 -7.1250 0.0000 -0.0000 -3.4435 17.2040 2.2751 -0.0000 0.0000 0.0000 91.2668 -6.1618 4.1533 -17.8394 27.9511 -4.4737 0.0000 -0.0000 -1.9664 -9.1232 -52.4329 7.2542 7.1250 -0.0000 -0.0000 66.1167 -74.4618 -50.6834
16.9490 18.0005 20.5812 174.0230 -1.8223 -154.1230 0.0000 0.0000 0.0000 -25.0370 -17.0040 -18.9208 0.2855 3.4365 9.4966 0.0554 -5.8094 -5.5006 0.0233 -0.9846 -2.7065 0.0000 0.0000 0.0000 15.8704 9.4517 -19.7808 -0.1060 -2.0989 5.7791 -0.9268 7.4750 -17.2153 -0.0092 -0.6197 1.7028 -9.8700 -2.7128 -32.0362 -0.4193 -0.5154 -0.5371 4.5631 -1.2353 16.1288 -0.8949 -0.0456 -4.0600 3.3222 -0.7056 11.1911 1.2345 -0.3689 4.4385 0.0000 0.0000 0.0000 -85.4737 1.1529 21.6330 12.1376 -20.0106 -2.1491 -0.0000 -0.0000 4.1653 22.2768 -11.8270 -4.7994 -7.1250 0.0000 -0.0000 -3.4202 17.2431 2.2567 0.0000 0.0000 0.0000 91.2621 -6.2203 4.2461 -17.8759 27.9980 -4.4908 0.0000 -0.0000 -2.0310 -9.3939 -52.5502 7.4824 7.1250 -0.0000 -0.0000 66.3850 -74.6019 -51.0804
16.9525 17.9988 20.5809 174.0780 -1.8188 -154.0860 0.0000 0.0000 0.0000 -24.9539 -16.9452 -18.9983 0.2867 3.4435 9.5159 0.0482 -6.0911 -5.4805 0.0096 -0.6337 -1.7415 0.0000 0.0000 0.0000 15.9938 9.3146 -19.8044 -0.1015 -2.0550 5.6576 -0.9381 7.5692 -17.3244 -0.0016 -0.2599 0.7140 -9.8738 -2.7170 -32.0688 -0.3827 -0.5243 -0.5511 4.6012 -1.2411 16.1284 -0.8351 -0.2061 -4.0352 3.2354 -0.9414 11.4035 1.1835 -0.4924 4.5155 -0.0000 0.0000 0.0000 -85.4955 1.1288 21.6525 12.1561 -20.0384 -2.1555 -0.0000 -0.0000 4.1167 22.0785 -11.7458 -4.7203 -7.1250 0.0000 -0.0000 -3.5555 17.3485 2.3381 -0.0000 0.0000 0.0000 91.2397 -6.2449 4.3272 -17.9030 28.0328 -4.5036 0.0000 -0.0000 -2.0436 -9.4527 -52.0007 7.4745 7.1250 -0.0000 -0.0000 64.4629 -74.4364 -49.1716
16.9525 17.9997 20.5778 174.1010 -1.7851 -154.1550 0.0000 0.0000 0.0000 -24.9641 -16.9026 -18.9042 0.2854 3.4358 9.4946 0.0480 -6.1513 -5.5061 0.0123 -0.7152 -1.9656 0.0000 0.0000 0.0000 16.0298 9.3603 -19.6972 -0.1016 -2.0551 5.6579 -0.9582 7.5263 -17.5032 -0.0001 -0.0576 0.1583 -9.8601 -2.6950 -32.0492 -0.3741 -0.4988 -0.5323 4.6155 -1.2287 16.1394 -0.5743 -0.6662 -4.0305 2.9906 -1.6451 12.1699 1.0190 -0.8591 4.8072 -0.0000 -0.0000 0.0000 -85.5442 1.0621 21.5683 12.1205 -19.9851 -2.1433 -0.0000 -0.0000 4.2296 21.9309 -11.7819 -4.6998 -7.1250 0.0000 -0.0000 -3.6600 17.3235 2.4091 -0.0000 -0.0000 0.0000 91.2299 -6.2201 4.2666 -17.8945 28.0218 -4.4995 0.0000 -0.0000 -2.0433 -8.9564 -52.1707 7.0958 7.1250 -0.0000 -0.0000 65.3104 -74.3105 -49.7914
16.9515 17.9984 20.5760 174.1270 -1.7438 -154.1350 0.0000 0.0000 0.0000 -24.9327 -16.8802 -18.9280 0.2857 3.4377 9.4998 0.0469 -6.1566 -5.4837 0.0053 -0.4718 -1.2963 0.0000 0.0000 0.0000 16.0471 9.3670 -19.7427 -0.1029 -2.0686 5.6953 -0.9633 7.5974 -17.5535 -0.0000 0.0266 -0.0731 -9.8209 -2.6707 -32.1074 -0.3780 -0.4759 -0.5312 4.5988 -1.2176 16.1634 -0.8752 -0.3699 -3.9603 3.2745 -1.1942 11.6333 1.1920 -0.6250 4.5918 -0.0000 0.0000 0.0000 -85.5553 0.9788 21.5522 12.0614 -19.8966 -2.1231 -0.0000 -0.0000 4.2989 22.0084 -11.8250 -4.7350 -7.1250 0.0000 -0.0000 -3.6075 17.2703 2.3786 -0.0000 0.0000 0.0000 91.2367 -6.1616 4.1869 -17.8642 27.9829 -4.4853 0.0000 -0.0000 -1.9925 -9.1487 -51.6736 7.2005 7.1250 -0.0000 -0.0000 63.5350 -74.2028 -48.0915
16.9488 17.9977 20.5728 174.1510 -1.7113 -154.1560 0.0000 0.0000 0.0000 -24.9166 -16.9217 -18.8740 0.2853 3.4353 9.4932 0.0530 -5.9489 -5.5161 0.0081 -0.5799 -1.5935 0.0000 0.0000 0.0000 16.0534 9.3456 -19.7323 -0.1033 -2.0730 5.7075 -0.9461 7.6722 -17.4033 -0.0003 -0.1172 0.3220 -9.7710 -2.6403 -32.1570 -0.3978 -0.4434 -0.5111 4.5635 -1.2011 16.2050 -0.6232 -0.5686 -4.0324 3.0347 -1.4945 12.0071 1.0506 -0.7806 4.7452 -0.0000 -0.0000 0.0000 -85.5439 0.9361 21.5380 12.0394 -19.8637 -2.1157 -0.0000 -0.0000 4.3691 22.1171 -12.0901 -4.8654 -7.1250 0.0000 -0.0000 -3.5420 16.9767 2.3580 -0.0000 -0.0000 0.0000 91.2752 -6.1133 4.0729 -17.8284 27.9368 -4.4685 0.0000 -0.0000 -1.8333 -8.8187 -51.9866 6.9688 7.1250 -0.0000 -0.0000 64.7663 -74.1942 -49.1767
16.9501 17.9960 20.5749 174.2250 -1.7623 -154.1340 0.0000 0.0000 0.0000 -24.8120 -16.8944 -18.9616 0.2886 3.4545 9.5468 0.0575 -5.7526 -5.5238 0.0282 -1.0849 -2.9825 0.0000 0.0000 0.0000 16.1517 9.4342 -19.6840 -0.1004 -2.0428 5.6241 -0.9116 7.6206 -17.0864 -0.0102 -0.6527 1.7936 -9.7349 -2.6413 -32.1612 -0.3730 -0.4620 -0.5198 4.5640 -1.2067 16.2002 -0.4849 -0.7006 -4.0332 2.9738 -1.7148 12.3123 0.9937 -0.8942 4.8608 -0.0000 -0.0000 0.0000 -85.5790 0.9275 21.4133 12.0630 -19.8990 -2.1237 -0.0000 -0.0000 4.5574 22.1256 -12.4310 -5.0019 -7.1250 0.0000 -0.0000 -3.5503 16.6115 2.3918 -0.0000 -0.0000 0.0000 91.2900 -6.0757 3.9985 -17.8020 27.9029 -4.4562 0.0000 -0.0000 -1.7353 -8.3404 -52.2800 6.6148 7.1250 -0.0000 -0.0000 66.0085 -74.1184 -50.2056
16.9468 17.9977 20.5713 174.3000 -1.7591 -154.2820 0.0000 0.0000 0.0000 -24.7765 -16.9187 -18.7144 0.2839 3.4265 9.4685 0.0659 -5.6071 -5.6492 0.0395 -1.2830 -3.5279 0.0000 0.0000 0.0000 16.2445 9.4164 -19.4467 -0.0968 -2.0065 5.5235 -0.9073 7.6413 -17.0488 -0.0128 -0.7299 2.0059 -9.6326 -2.6224 -32.0636 -0.3483 -0.4758 -0.4812 4.5346 -1.2026 16.2085 -0.5559 -0.6563 -4.0095 3.0700 -1.6616 12.3036 1.0424 -0.8674 4.8539 -0.0000 0.0000 0.0000 -85.6405 0.9239 21.2646 12.0932 -19.9443 -2.1340 -0.0000 -0.0000 4.6613 22.0127 -12.4166 -4.9681 -7.1250 0.0000 -0.0000 -3.6280 16.6379 2.4423 -0.0000 0.0000 0.0000 91.2398 -6.0429 4.1579 -17.8251 27.9326 -4.4670 0.0000 -0.0000 -1.8864 -8.6043 -52.2427 6.8218 7.1250 -0.0000 -0.0000 65.7424 -74.2039 -50.0613
16.9467 17.9944 20.5695 174.3230 -1.6474 -154.2100 0.0000 0.0000 0.0000 -24.7682 -16.8032 -18.8242 0.2817 3.4135 9.4323 0.0589 -5.8476 -5.6030 0.0243 -1.0072 -2.7687 0.0000 0.0000 0.0000 16.2506 9.5042 -19.5529 -0.0993 -2.0322 5.5946 -0.9339 7.6553 -17.2923 -0.0010 -0.2050 0.5634 -9.6376 -2.6112 -32.1626 -0.3326 -0.4591 -0.5020 4.5593 -1.1993 16.2246 -0.5363 -0.6563 -4.0358 3.0131 -1.6619 12.3686 1.0196 -0.8701 4.8823 0.0000 0.0000 0.0000 -85.6480 0.9269 21.3054 12.1138 -19.9751 -2.1410 -0.0000 -0.0000 4.5467 21.7827 -12.4125 -4.9095 -7.1250 0.0000 -0.0000 -3.7874 16.6645 2.5479 0.0000 0.0000 0.0000 91.2116 -6.0226 4.2640 -17.8666 27.9860 -4.4865 0.0000 -0.0000 -1.9938 -9.0981 -53.0212 7.2902 7.1250 -0.0000 -0.0000 68.1761 -74.6375 -52.7488
